<svg xmlns="http://www.w3.org/2000/svg" width="116" height="116" viewBox="0 0 116 116" version="1.1">
	<path d="M 4.712 4.784 L -0 9.569 0 37.581 L 0 65.594 4 69.500 L 8 73.406 8 90.253 C 8 108.898, 8.705 111.762, 13.967 114.483 C 18.356 116.753, 105.644 116.753, 110.033 114.483 C 115.844 111.478, 115.798 111.891, 116.349 57.451 C 116.627 29.978, 116.540 9.525, 116.155 12 C 115.547 15.906, 115.347 16.194, 114.638 14.181 C 114.189 12.906, 112.399 10.995, 110.661 9.935 C 107.867 8.231, 105.522 8.007, 90.453 8.004 L 73.406 8 69.500 4 L 65.594 0 37.509 0 L 9.425 -0 4.712 4.784 M 7.500 10 C 8.968 11.622, 10.580 12, 16.033 12 C 20.469 12, 23.138 11.539, 23.880 10.645 C 24.800 9.536, 23.779 9.174, 18.252 8.652 C 14.539 8.301, 10.193 8.011, 8.595 8.007 C 5.753 8, 5.729 8.044, 7.500 10 M 0.441 37.500 C 0.442 53.450, 0.580 59.835, 0.748 51.689 C 0.916 43.543, 0.916 30.493, 0.747 22.689 C 0.579 14.885, 0.441 21.550, 0.441 37.500 M 24.254 13.250 L 20.091 17.500 20.697 30.250 C 21.031 37.263, 21.630 43, 22.030 43 C 24.479 43, 25.171 39.488, 24.870 28.587 C 24.567 17.630, 24.662 16.988, 26.951 14.553 C 29.022 12.348, 30.194 12, 35.552 12 C 39.846 12, 42.138 11.538, 43 10.500 C 44.089 9.188, 43.252 9, 36.331 9 L 28.416 9 24.254 13.250 M 35.242 35.258 L 12 58.516 12 82.803 L 12 107.091 14.455 109.545 L 16.909 112 62 112 L 107.091 112 109.545 109.545 L 112 107.091 112 62 L 112 16.909 109.545 14.455 L 107.091 12 82.787 12 L 58.484 12 35.242 35.258 M 13 15.500 C 13.685 16.325, 15.035 17, 16 17 C 16.965 17, 18.315 16.325, 19 15.500 C 20.073 14.207, 19.660 14, 16 14 C 12.340 14, 11.927 14.207, 13 15.500 M 28.174 16.314 C 26.231 18.383, 26 19.729, 26 28.969 L 26 39.310 28.119 37.405 C 30.028 35.689, 30.183 34.764, 29.682 28.066 C 29.032 19.371, 29.939 17, 33.913 17 C 35.476 17, 37.315 16.325, 38 15.500 C 39.075 14.205, 38.637 14, 34.797 14 C 31.440 14, 29.815 14.568, 28.174 16.314 M 93.583 27.013 C 88.326 29.066, 86.245 30.578, 87.267 31.601 C 87.932 32.266, 101 26.510, 101 25.553 C 101 24.577, 98.623 25.045, 93.583 27.013 M 68.500 33.621 L 55.500 39.150 51.003 37.610 C 46.643 36.117, 46.399 36.144, 43.003 38.489 C 41.076 39.819, 37.775 41.625, 35.667 42.502 C 31.371 44.289, 31.738 45.820, 36.985 47.994 C 39.375 48.984, 40.681 48.913, 44.201 47.605 C 46.566 46.727, 49.432 46.096, 50.570 46.203 C 51.709 46.311, 57.448 44.430, 63.325 42.025 C 71.218 38.793, 75.379 36.403, 79.254 32.871 C 82.139 30.242, 83.825 28.091, 83 28.092 C 82.175 28.093, 75.650 30.581, 68.500 33.621 M 81.972 33.056 C 79.143 35.230, 80.336 35.574, 83.885 33.607 C 85.197 32.880, 85.859 32.031, 85.357 31.721 C 84.855 31.410, 83.332 32.011, 81.972 33.056 M 53.556 32.910 C 52.913 33.950, 53.889 37.008, 54.857 36.985 C 56.619 36.943, 58.222 35.020, 57.677 33.601 C 57.011 31.866, 54.465 31.439, 53.556 32.910 M 64.500 43.670 C 57.350 46.657, 50.679 48.886, 49.675 48.624 C 47.084 47.948, 33.980 53.656, 36.172 54.506 C 37.091 54.862, 38.749 54.669, 39.856 54.077 C 42.625 52.595, 43.470 52.728, 42.063 54.424 C 41.325 55.313, 41.133 57.192, 41.552 59.424 C 42.079 62.236, 42.680 62.985, 44.361 62.930 C 48.555 62.792, 50.231 61.358, 51.859 56.515 C 52.761 53.829, 53.993 51.475, 54.596 51.284 C 55.199 51.093, 56.899 52.760, 58.374 54.988 C 60.779 58.623, 61.277 58.922, 63.208 57.889 C 65.067 56.894, 65.155 56.584, 63.855 55.618 C 63.027 55.003, 61.587 53.328, 60.655 51.895 L 58.960 49.291 68.230 45.475 C 78.568 41.219, 79.853 40.420, 78.450 39.120 C 77.889 38.601, 72.171 40.466, 64.500 43.670 M 31 49.441 C 31 51.466, 32.643 52.248, 35.196 51.438 C 37.299 50.770, 37.310 50.700, 35.496 49.373 C 33.057 47.590, 31 47.621, 31 49.441 M 45.923 51.250 C 45.613 52.264, 44.935 54.937, 44.401 57.250 C 43.869 59.558, 44.094 60, 45.806 60 C 48.487 60, 51.031 53.267, 48.867 51.896 C 47.544 51.059, 46.080 50.737, 45.923 51.250 M 97.513 62.309 C 93.738 63.691, 91.403 65.146, 91.190 66.250 C 90.717 68.709, 92.356 68.454, 100.170 64.852 C 110.697 60, 108.796 58.181, 97.513 62.309 M 68.500 69.922 L 52.500 76.706 47.758 74.871 C 43.941 73.393, 42.527 73.258, 40.508 74.178 C 39.129 74.807, 38 75.712, 38 76.189 C 38 76.667, 35.284 78.235, 31.965 79.674 C 28.646 81.114, 26.094 82.788, 26.293 83.396 C 26.492 84.003, 28.385 85.476, 30.499 86.668 C 34.330 88.828, 34.359 88.829, 39.135 86.947 C 41.770 85.908, 45.406 85.092, 47.213 85.134 C 49.049 85.176, 55.959 82.941, 62.870 80.069 C 72.248 76.172, 76.663 73.691, 81.120 69.814 C 86.930 64.761, 88.184 62.934, 85.750 63.069 C 85.063 63.108, 77.300 66.191, 68.500 69.922 M 84 69.500 C 80.251 72.266, 80.688 72.604, 85.679 70.799 C 87.506 70.139, 89 69.014, 89 68.299 C 89 66.404, 87.809 66.690, 84 69.500 M 51.139 69.332 C 50.324 70.315, 50.378 71.135, 51.346 72.459 C 52.434 73.947, 53.031 74.054, 54.842 73.085 C 56.625 72.130, 56.833 71.557, 55.978 69.958 C 54.763 67.688, 52.723 67.424, 51.139 69.332 M 64.500 81.602 C 55.104 85.560, 48.192 87.891, 46 87.840 C 44.075 87.796, 39.575 89.020, 36 90.561 C 28.164 93.938, 28.218 93.899, 29.914 94.947 C 30.712 95.440, 32.677 95.197, 34.690 94.356 C 37.996 92.975, 38.074 92.994, 37.037 94.930 C 36.422 96.080, 36.247 98.690, 36.625 101.059 L 37.285 105.184 41.893 104.499 C 44.427 104.121, 46.556 103.743, 46.624 103.656 C 46.693 103.570, 47.593 100.804, 48.624 97.509 C 49.711 94.039, 51.131 91.411, 52 91.263 C 52.836 91.120, 54.828 92.996, 56.500 95.501 C 59.744 100.362, 60.503 100.691, 63.403 98.496 C 65.105 97.208, 65.134 96.989, 63.674 96.428 C 62.065 95.811, 57.427 89.217, 58.136 88.554 C 58.336 88.367, 63.450 86.181, 69.500 83.695 C 79.368 79.641, 82.784 77.125, 80.305 75.735 C 79.862 75.487, 72.750 78.127, 64.500 81.602 M 24.593 87.619 C 23.685 89.984, 23.867 90.735, 25.500 91.362 C 27.206 92.016, 30 91.176, 30 90.008 C 30 89.580, 28.917 88.520, 27.593 87.653 C 25.429 86.235, 25.125 86.232, 24.593 87.619 M 41 92.941 C 41 94.009, 40.550 95.160, 40 95.500 C 38.781 96.253, 38.723 99.015, 39.888 100.853 C 41.285 103.057, 44.473 100.625, 45.783 96.356 C 46.680 93.432, 46.666 92.407, 45.721 91.806 C 43.432 90.352, 41 90.936, 41 92.941" stroke="none" fill="black" fill-rule="evenodd"/>
</svg>