<svg xmlns="http://www.w3.org/2000/svg" width="116" height="116" viewBox="0 0 116 116" version="1.1">
	<path d="M 4.712 4.784 L -0 9.569 -0 38.081 L -0 66.594 4 70.500 L 8 74.406 8 90.753 C 8 108.857, 8.734 111.777, 13.967 114.483 C 18.356 116.753, 105.644 116.753, 110.033 114.483 C 115.860 111.470, 115.814 111.883, 116.358 57.436 C 116.632 29.971, 116.542 9.525, 116.156 12 C 115.548 15.907, 115.347 16.194, 114.638 14.181 C 114.189 12.906, 112.399 10.995, 110.661 9.935 C 107.877 8.237, 105.528 8.007, 90.953 8.004 L 74.406 8 70.500 4 L 66.594 0 38.009 -0 L 9.425 -0 4.712 4.784 M 0.442 38 C 0.442 54.225, 0.580 60.862, 0.748 52.750 C 0.916 44.637, 0.916 31.362, 0.748 23.250 C 0.580 15.137, 0.442 21.775, 0.442 38 M 43.048 40.133 L 12 68.265 12 87.678 C 12 107.018, 12.009 107.100, 14.484 109.575 L 16.968 112.059 62.449 111.779 C 104.552 111.521, 108.063 111.367, 109.715 109.715 C 111.367 108.063, 111.521 104.552, 111.779 62.449 L 112.059 16.968 109.575 14.484 C 107.130 12.039, 106.829 12, 90.594 12 L 74.096 12 43.048 40.133 M 99 26.737 C 94.490 30.235, 92.927 32.288, 93.967 33.349 C 94.424 33.816, 95.659 33.926, 96.710 33.592 C 99.487 32.711, 105.342 26.362, 104.553 25.086 C 103.580 23.512, 102.895 23.716, 99 26.737 M 81.247 39.855 C 71.085 47.912, 71.326 47.598, 73.479 49.976 C 74.486 51.089, 75.803 51.994, 76.405 51.986 C 77.007 51.979, 81.069 48.691, 85.432 44.681 C 91.275 39.308, 93.192 36.942, 92.713 35.694 C 91.617 32.840, 88.810 33.858, 81.247 39.855 M 55.750 37.392 C 54.788 38.123, 54 39.018, 54 39.383 C 54 40.264, 62.081 49.004, 62.877 48.985 C 63.220 48.976, 64.109 48.583, 64.853 48.112 C 66.433 47.111, 65.391 44.659, 61.086 39.250 C 58.166 35.580, 58.146 35.573, 55.750 37.392 M 66.031 51.467 C 63.846 53.793, 55.312 57.447, 51.981 57.483 C 51.145 57.493, 48.445 59.118, 45.981 61.095 C 43.516 63.073, 40.712 64.971, 39.750 65.314 C 38.788 65.657, 38 66.357, 38 66.870 C 38 67.383, 36.538 68.668, 34.750 69.726 C 32.760 70.904, 30.992 73.069, 30.190 75.313 C 28.960 78.749, 29.045 79.192, 31.558 82.488 C 33.032 84.419, 34.756 86, 35.391 86 C 36.025 86, 38.248 84.596, 40.330 82.880 L 44.115 79.760 46.340 81.850 C 47.564 83, 49.419 86.452, 50.463 89.523 C 51.507 92.593, 52.740 95.339, 53.204 95.626 C 53.668 95.913, 56.029 95.391, 58.451 94.466 C 62.986 92.734, 63.359 91.542, 60.474 88 C 59.803 87.175, 58.715 84.826, 58.058 82.779 C 56.898 79.163, 56.965 78.970, 60.432 75.926 C 64.615 72.253, 64.755 71.433, 61.750 68.233 L 59.500 65.838 64 61.949 C 68.354 58.187, 68.545 58.125, 69.872 60.030 C 71.611 62.528, 73.216 62.524, 75.483 60.019 C 77.445 57.851, 77.292 57.477, 72.113 51.750 C 69.080 48.396, 68.923 48.389, 66.031 51.467 M 80.383 52.364 C 78.461 54.028, 77.833 55.194, 78.500 55.861 C 79.167 56.528, 80.461 56.028, 82.383 54.364 C 84.306 52.699, 84.933 51.533, 84.267 50.867 C 83.600 50.200, 82.306 50.699, 80.383 52.364 M 44.331 66.340 C 40.938 69.153, 38.378 71.803, 38.642 72.230 C 39.302 73.298, 41.643 71.825, 47.427 66.702 C 54.428 60.501, 51.752 60.188, 44.331 66.340 M 65.681 63.437 C 64.059 64.731, 63.153 66.235, 63.481 67.091 C 64.058 68.594, 79.025 78, 80.840 78 C 81.403 78, 82.850 76.615, 84.055 74.923 C 86.861 70.983, 85.550 69.464, 79.455 69.596 C 75.994 69.670, 75.242 69.414, 76.054 68.435 C 76.726 67.625, 76.748 66.963, 76.118 66.573 C 75.579 66.240, 74.856 66.425, 74.510 66.984 C 73.460 68.683, 71.830 68.118, 72.390 66.250 C 72.717 65.162, 72.069 63.883, 70.677 62.869 C 68.575 61.337, 68.273 61.371, 65.681 63.437 M 57.486 69.022 C 57.095 69.656, 57.275 70.675, 57.887 71.287 C 59.500 72.900, 59.264 73.698, 57 74.290 C 55.900 74.577, 55 75.305, 55 75.906 C 55 77.738, 56.489 77.142, 59.334 74.174 C 61.991 71.400, 62.006 71.315, 60.120 69.609 C 58.753 68.371, 57.993 68.202, 57.486 69.022 M 53.020 72.476 C 52.231 73.426, 52.155 74, 52.819 74 C 54.027 74, 55.436 72.103, 54.743 71.409 C 54.491 71.158, 53.716 71.638, 53.020 72.476 M 24.958 82.550 C 23.904 83.821, 23.927 84.351, 25.086 85.489 C 26.293 86.674, 26.778 86.671, 28.398 85.470 C 29.968 84.306, 30.077 83.798, 29.026 82.531 C 27.423 80.600, 26.574 80.604, 24.958 82.550" stroke="none" fill="black" fill-rule="evenodd"/>
</svg>